HIERARCHY
ROOT Hips
{
	OFFSET	0	0	0
	CHANNELS 6  Xposition Yposition Zposition Xrotation Yrotation Zrotation
	JOINT Spine
	{
		OFFSET	0	0.01	0
		CHANNELS 3  Xrotation Yrotation Zrotation
		JOINT Spine1
		{
			OFFSET	0	0.112902	-0.0100806
			CHANNELS 3  Xrotation Yrotation Zrotation
			JOINT Spine2
			{
				OFFSET	0	0.125906	0.00917332
				CHANNELS 3  Xrotation Yrotation Zrotation
				JOINT Spine3
				{
					OFFSET	0	0.0822574	0.0102822
					CHANNELS 3  Xrotation Yrotation Zrotation
					JOINT Spine4
					{
						OFFSET	0	0.111289	0.0147176
						CHANNELS 3  Xrotation Yrotation Zrotation
						JOINT Neck
						{
							OFFSET	0	0.0723784	-0.0507053
							CHANNELS 3  Xrotation Yrotation Zrotation
							JOINT Head
							{
								OFFSET	0	0.0868945	-0.0260079
								CHANNELS 3  Xrotation Yrotation Zrotation
								End Site
								{
									OFFSET	0	0.181249	-0.00877009
								}
							}
						}
						JOINT LeftShoulder
						{
							OFFSET	-0.0435481	0.032661	-0.0713704
							CHANNELS 3  Xrotation Yrotation Zrotation
							JOINT LeftArm
							{
								OFFSET	-0.0946565	-0.0260078	0.0333669
								CHANNELS 3  Xrotation Yrotation Zrotation
								JOINT LeftForeArm
								{
									OFFSET	-0.314815	-0.0143687	0.0224712
									CHANNELS 3  Xrotation Yrotation Zrotation
									JOINT LeftHand
									{
										OFFSET	-0.239191	-0.0165294	0.0170732
										CHANNELS 3  Xrotation Yrotation Zrotation
										End Site
										{
											OFFSET	-0.0872926	-0.00603241	0.00623045
										}
									}
								}
							}
						}
						JOINT RightShoulder
						{
							OFFSET	0.0435481	0.032661	-0.0713704
							CHANNELS 3  Xrotation Yrotation Zrotation
							JOINT RightArm
							{
								OFFSET	0.0946565	-0.0260078	0.0333669
								CHANNELS 3  Xrotation Yrotation Zrotation
								JOINT RightForeArm
								{
									OFFSET	0.314815	-0.0143687	0.0224712
									CHANNELS 3  Xrotation Yrotation Zrotation
									JOINT RightHand
									{
										OFFSET	0.239191	-0.0165294	0.0170732
										CHANNELS 3  Xrotation Yrotation Zrotation
										End Site
										{
											OFFSET	0.0872926	-0.00603241	0.00623045
										}
									}
								}
							}
						}
					}
				}
			}
		}
	}
	JOINT LeftUpLeg
	{
		OFFSET	-0.0834671	-0.128608	0.000302418
		CHANNELS 3  Xrotation Yrotation Zrotation
		JOINT LeftLeg
		{
			OFFSET	-0.0282207	-0.396991	0.00220161
			CHANNELS 3  Xrotation Yrotation Zrotation
			JOINT LeftFoot
			{
				OFFSET	-0.0117086	-0.411602	0.035426
				CHANNELS 3  Xrotation Yrotation Zrotation
				JOINT LeftToeBase
				{
					OFFSET	-0.0200147	-0.0700513	-0.138702
					CHANNELS 3  Xrotation Yrotation Zrotation
					End Site
					{
						OFFSET	0	0	-0.0422309
					}
				}
			}
		}
	}
	JOINT RightUpLeg
	{
		OFFSET	0.0834671	-0.128608	0.000302418
		CHANNELS 3  Xrotation Yrotation Zrotation
		JOINT RightLeg
		{
			OFFSET	0.0282207	-0.396991	0.00220161
			CHANNELS 3  Xrotation Yrotation Zrotation
			JOINT RightFoot
			{
				OFFSET	0.0117086	-0.411602	0.035426
				CHANNELS 3  Xrotation Yrotation Zrotation
				JOINT RightToeBase
				{
					OFFSET	0.0200147	-0.0700513	-0.138702
					CHANNELS 3  Xrotation Yrotation Zrotation
					End Site
					{
						OFFSET	0	0	-0.0422309
					}
				}
			}
		}
	}
}
MOTION
Frames: 9
Frame Time: 0.02
 -0.0495979 0.838966 0.355422 170.804 -176.915 -179.271 179.209 179.804 -179.526 179.207 179.636 -179.533 179.205 179.437 -179.55 179.209 179.156 -179.382 179.21 179.868 -179.505 7.75178 -0.204014 -1.1736 7.75724 0.714687 -1.39408 0.140996 -3.13226 -0.0936852 59.9986 -27.9987 -17.3351 27.0777 -41.0056 16.8441 0.250156 -28.6161 -10.4764 1.46422 13.1073 -1.53365 68.8157 27.6588 16.4801 24.7185 39.7359 -14.5389 0.57772 23.8626 6.3292 57.3342 8.91849 -25.0022 113.229 -179.394 -178.393 34.2714 -5.71501 20.0463 140.774 180 -180 62.7684 -11.6505 20.9676 113.343 178.233 -177.75 24.5941 5.97566 -20.1636 141.825 180 -180
 -0.0495507 0.857957 0.355566 170.993 -177.009 -179.427 179.385 179.819 -179.513 179.384 179.653 -179.52 179.382 179.455 -179.537 179.386 179.177 -179.376 179.386 179.883 -179.494 6.69471 -0.0531976 -1.05848 6.69977 0.85274 -1.23767 179.832 -176.566 179.257 59.2277 -27.1522 -17.5108 26.4598 -40.9176 16.491 0.260497 -28.6346 -10.4175 1.15321 13.1426 -0.875882 68.7264 27.1833 16.1012 24.2379 39.806 -14.4273 0.595542 24.071 6.30253 54.8532 9.32474 -23.9703 116.641 -179.577 -178.363 31.3801 -5.71465 20.073 140.729 180 -180 60.0165 -12.1276 20.449 117.574 178.293 -178.07 22.3796 5.94909 -20.14 142.429 180 -180
 -0.0490129 0.876237 0.352834 171.312 -177.014 -179.542 179.563 179.814 -179.506 179.562 179.647 -179.512 179.56 179.449 -179.53 179.564 179.171 -179.37 179.564 179.876 -179.486 5.93534 0.04505 -1.04966 5.94079 1.00397 -1.2119 179.641 -176.304 178.846 58.8 -26.2487 -17.4598 26.0512 -41.3284 16.0582 0.268197 -28.6446 -10.3721 0.720985 13.2074 0.0407219 68.6177 26.5346 15.8268 23.682 39.2494 -13.9837 0.599354 24.1727 6.32148 51.9323 9.65964 -22.8771 120.519 -179.481 -178.391 28.155 -5.68301 20.0628 140.787 180 -180 56.8135 -12.3924 19.7292 121.703 178.334 -178.294 20.4907 5.91266 -20.1387 143.083 180 -180
 -0.0499545 0.894278 0.350391 171.684 -177.218 -179.432 179.701 179.865 -179.578 179.7 179.697 -179.588 179.699 179.503 -179.605 179.702 179.211 -179.457 179.702 179.917 -179.565 5.27116 0.0517934 -1.04138 5.27643 1.00193 -1.19162 179.344 -176.068 178.223 58.4868 -25.4742 -17.4166 25.8029 -41.3491 15.8463 0.213021 -28.5696 -10.6962 0.371609 13.3402 0.791598 68.5432 25.7417 15.3942 23.5163 39.297 -13.8559 0.598957 24.5655 6.49374 49.0658 9.90984 -21.8201 124.394 -179.689 -178.46 25.2174 -5.6894 20.0486 141.008 180 -180 53.4537 -12.554 18.9508 125.949 178.2 -178.606 18.4447 5.88003 -20.122 143.81 180 -180
 -0.0502216 0.910598 0.348988 171.981 -177.432 -179.363 179.815 179.903 -179.628 179.814 179.736 -179.64 179.813 179.545 -179.657 179.815 179.249 -179.52 179.816 179.948 -179.619 4.76943 -0.0272088 -1.11269 4.77483 0.923586 -1.26925 179.189 -175.863 177.886 58.1625 -24.7689 -17.308 25.7541 -41.4763 15.9421 0.145393 -28.5781 -11.1359 0.103662 13.4276 1.36683 68.5787 25.0262 15.0425 23.4518 39.6802 -13.8008 0.623444 24.8932 6.47559 46.4624 10.0817 -20.8617 128.283 -179.683 -178.49 22.2524 -5.70348 20.0626 141.337 180 -180 50.2442 -12.594 18.1778 130.1 178.104 -178.946 16.4639 5.85712 -20.1016 144.524 180 -180
 -0.0503683 0.927861 0.346362 172.673 -177.78 -179.141 179.776 179.993 -179.713 179.775 179.828 -179.729 179.775 179.645 -179.746 179.776 179.343 -179.629 179.776 -179.973 -179.714 4.43881 -0.0640383 -0.974617 4.44271 0.736332 -1.10947 178.982 -176.441 177.551 57.8547 -24.1014 -17.2725 25.6262 -41.892 16.1196 0.136193 -28.5345 -11.1773 179.683 166.96 -177.791 68.4033 24.4457 14.8827 23.0099 39.7565 -13.5942 0.703875 24.8836 5.94745 43.3726 10.2266 -20.0939 132.271 -179.548 -178.491 18.7426 -5.71155 20.0645 141.841 180 -180 46.3324 -12.4234 17.294 133.863 178.253 -179.313 14.1753 5.83705 -20.0933 145.286 180 -180
 -0.0506198 0.944788 0.345321 173.261 -178.272 -178.998 179.758 -179.904 -179.778 179.757 179.938 -179.8 179.757 179.765 -179.815 179.757 179.466 -179.725 179.757 -179.878 -179.791 4.35022 -0.0598281 -0.856905 4.35322 0.640471 -0.974632 178.696 -176.541 176.993 57.5456 -23.5936 -17.2282 25.3513 -41.7886 15.8451 0.114592 -28.5288 -11.3144 179.362 167.116 -177.133 68.2702 23.9615 14.5539 22.6111 39.9754 -13.4299 0.778671 24.9558 5.49212 40.4658 10.361 -19.3579 136.107 -179.352 -178.369 15.5502 -5.73624 20.0741 142.41 180 -180 42.8558 -12.2073 16.5837 137.498 178.589 -179.677 12.0839 5.81976 -20.0824 146.108 180 -180
 -0.0505085 0.958778 0.344085 173.841 -178.731 -178.905 179.748 -179.825 -179.821 179.748 -179.978 -179.848 179.747 179.858 -179.862 179.748 179.563 -179.793 179.748 -179.804 -179.844 4.33275 0.0604496 -0.540494 4.33423 0.573135 -0.609011 178.56 -176.439 176.708 57.4565 -23.0355 -17.0865 25.046 -41.8229 15.5133 0.0647283 -28.6192 -11.6737 179.124 167.187 -176.64 68.1875 23.6076 14.2337 22.2479 40.0432 -13.2079 0.881475 25.2254 4.94236 37.5888 10.4494 -18.6678 140.022 -179.342 -178.15 12.8333 -5.74686 20.0785 143.146 180 -180 39.7429 -11.995 16.0318 140.854 178.886 179.882 9.94611 5.79502 -20.0697 147.061 180 -180
 -0.0498098 0.972556 0.341781 174.205 -178.919 -179.015 179.826 -179.754 -179.844 179.826 -179.902 -179.874 179.825 179.94 -179.889 179.825 179.65 -179.838 179.826 -179.737 -179.875 4.335 0.226224 -0.210296 4.33561 0.57245 -0.225395 178.568 -176.325 176.707 57.4543 -22.2891 -16.9259 24.6497 -41.9959 15.3901 180 -151.368 167.9 178.826 166.932 -175.977 68.3721 23.5236 13.9295 21.9607 39.955 -12.8399 0.994979 25.9699 4.53598 34.8706 10.46 -17.8921 143.45 -179.531 -177.91 9.94485 -5.71749 20.0508 144.128 180 -180 36.36 -11.7217 15.3922 145.079 179.189 179.39 7.86649 5.78896 -20.0766 148.305 180 -180
